# xmcd
#
# Track frame offsets:
# 150
# 5306
# 14345
# 25152
# 30167
# 44667
# 55548
# 61908
# 78723
# 91268
# 100894
# 114671
# 120789
# 136127
#
# Disc length: 1952 seconds
#
# Revision: 0
# Processed by: cddbd v1.5.1PL0 Copyright (c) Steve Scherf et al.
# Submitted via: Axialis_AX_CDPlayer 2.6
#
DISCID=9e079e0e
DTITLE=The Bikini Carwash Company - Bicycle
DYEAR=1900
DGENRE=
TTITLE0=Introlude
TTITLE1=Learning to Trust the BBC
TTITLE2=Up to the Kitchen
TTITLE3=Shift Key
TTITLE4=The Devil
TTITLE5=Are You My Girlfriend
TTITLE6=Dinosaurs!
TTITLE7=Your Guitar
TTITLE8=For Me
TTITLE9=In Search of Hollywood
TTITLE10=Everybody's Family
TTITLE11=Healthy Heart
TTITLE12=Sync Up
TTITLE13=At the Rate I'm Goin
EXTD=
EXTT0=
EXTT1=
EXTT2=
EXTT3=
EXTT4=
EXTT5=
EXTT6=
EXTT7=
EXTT8=
EXTT9=
EXTT10=
EXTT11=
EXTT12=
EXTT13=
PLAYORDER=
